<?xml version="1.0" encoding="UTF-8"?>
<svg xmlns="http://www.w3.org/2000/svg" viewBox="0 0 388.61 336.67">
	<g>
		<polygon points="315.49 42.4 339.73 84.37 291.25 84.37 315.49 42.4" />
		<polygon points="339.73 84.37 291.25 168.33 267.03 126.36 267.03 126.35 291.25 84.37 339.73 84.37" />
		<polygon
			points="267.03 126.36 291.25 168.33 267.03 210.3 267.02 210.3 242.79 168.33 267.02 126.36 267.03 126.36" />
		<polygon points="242.78 84.37 267.02 126.35 218.56 126.35 194.32 84.37 242.78 84.37" />
		<polygon points="194.32 .42 242.78 84.37 194.32 84.37 194.3 84.34 170.07 42.37 194.29 .42 194.32 .42" />
		<polygon
			points="194.3 252.32 218.54 294.29 194.32 336.25 194.29 336.25 145.83 252.29 194.29 252.29 194.3 252.32" />
		<polygon points="194.29 .42 170.07 42.37 145.84 .42 194.29 .42" />
		<polygon points="194.29 84.37 170.05 126.35 121.59 126.35 145.83 84.37 194.29 84.37" />
		<polygon points="170.05 210.32 194.29 252.29 145.83 252.29 121.59 210.32 170.05 210.32" />
		<polygon points="145.83 84.37 121.59 126.35 121.57 126.35 73.11 126.35 48.88 84.37 145.83 84.37" />
		<polygon
			points="121.59 126.36 145.81 168.33 121.59 210.3 121.57 210.3 97.35 168.33 121.57 126.36 121.59 126.36" />
		<polygon points="97.35 168.33 121.57 210.3 121.57 210.32 97.35 252.29 48.88 252.29 97.35 168.33" />
		<polygon points="97.35 252.29 73.11 294.26 48.88 252.29 97.35 252.29" />
		<polygon points="73.11 126.35 24.66 126.35 48.88 84.37 73.11 126.35" />
	</g>
</svg>